<svg width="65" height="65" viewBox="0 0 65 65" fill="none" xmlns="http://www.w3.org/2000/svg">
<circle cx="32.5" cy="32.5" r="32.5" fill="white"/>
<path d="M32.6286 41.532L40.5485 33.6219C40.6927 33.4714 40.8058 33.294 40.8812 33.0998C41.0396 32.7147 41.0396 32.2826 40.8812 31.8975C40.8058 31.7033 40.6927 31.5259 40.5485 31.3754L32.6286 23.4653C32.4809 23.3178 32.3056 23.2007 32.1126 23.1209C31.9196 23.0411 31.7128 23 31.5039 23C31.0821 23 30.6776 23.1674 30.3793 23.4653C30.081 23.7632 29.9135 24.1672 29.9135 24.5885C29.9135 25.0098 30.081 25.4138 30.3793 25.7117L35.6065 30.9166L23.584 30.9166C23.1639 30.9166 22.761 31.0833 22.4639 31.38C22.1669 31.6767 22 32.0791 22 32.4986C22 32.9182 22.1669 33.3206 22.4639 33.6173C22.761 33.914 23.1639 34.0807 23.584 34.0807L35.6065 34.0807L30.3793 39.2856C30.2308 39.4326 30.113 39.6076 30.0326 39.8004C29.9522 39.9932 29.9108 40.2 29.9108 40.4088C29.9108 40.6176 29.9522 40.8244 30.0326 41.0172C30.113 41.21 30.2308 41.385 30.3793 41.532C30.5266 41.6803 30.7018 41.798 30.8948 41.8783C31.0878 41.9587 31.2948 42 31.5039 42C31.7131 42 31.9201 41.9587 32.1131 41.8783C32.3061 41.798 32.4813 41.6803 32.6286 41.532Z" fill="#FF8B35"/>
</svg>
