<svg width="36" height="36" viewBox="0 0 36 36" fill="none" xmlns="http://www.w3.org/2000/svg">
<circle cx="18" cy="18" r="18" fill="white"/>
<path d="M18.7101 23.7141L23.7101 18.7141C23.8011 18.619 23.8725 18.5068 23.9201 18.3841C24.0201 18.1406 24.0201 17.8676 23.9201 17.6241C23.8725 17.5013 23.8011 17.3892 23.7101 17.2941L18.7101 12.2941C18.6169 12.2009 18.5062 12.1269 18.3844 12.0764C18.2625 12.026 18.132 12 18.0001 12C17.7338 12 17.4784 12.1058 17.2901 12.2941C17.1018 12.4824 16.996 12.7378 16.996 13.0041C16.996 13.2704 17.1018 13.5258 17.2901 13.7141L20.5901 17.0041L13.0001 17.0041C12.7349 17.0041 12.4805 17.1094 12.293 17.297C12.1055 17.4845 12.0001 17.7389 12.0001 18.0041C12.0001 18.2693 12.1055 18.5237 12.293 18.7112C12.4805 18.8987 12.7349 19.0041 13.0001 19.0041L20.5901 19.0041L17.2901 22.2941C17.1964 22.3871 17.122 22.4977 17.0712 22.6195C17.0204 22.7414 16.9943 22.8721 16.9943 23.0041C16.9943 23.1361 17.0204 23.2668 17.0712 23.3887C17.122 23.5105 17.1964 23.6211 17.2901 23.7141C17.3831 23.8078 17.4937 23.8822 17.6155 23.933C17.7374 23.9838 17.8681 24.0099 18.0001 24.0099C18.1321 24.0099 18.2628 23.9838 18.3847 23.933C18.5065 23.8822 18.6171 23.8078 18.7101 23.7141Z" fill="#F5A2CB"/>
</svg>
